<?xml version="1.0" encoding="iso-8859-1"?>
<!-- Generator: Adobe Illustrator 19.0.0, SVG Export Plug-In . SVG Version: 6.00 Build 0)  -->
<svg xmlns="http://www.w3.org/2000/svg" xmlns:xlink="http://www.w3.org/1999/xlink" version="1.1" id="Capa_1" x="0px" y="0px" viewBox="0 0 511.994 511.994" style="enable-background:new 0 0 511.994 511.994;" xml:space="preserve" width="512" height="512">
<g>
	<g>
		<path style="fill:#E5646E;" d="M270.248,243.753l-96.46,59.538l67.199-232.066c1.842-6.262-0.534-12.985-5.846-16.78    c-24.567-17.55-54.796-27.651-87.503-26.76C57.812,30.13-3.05,108.992,9.017,198.039    c17.985,132.726,167.714,243.219,224.788,280.898c3.923,2.59,9.189,0.278,9.945-4.361c6.247-38.382,29.095-178.728,36.488-224.142    C281.147,244.847,275.066,240.779,270.248,243.753z"/>
		<path style="fill:#E5646E;" d="M377.081,28.606c-32.393-3.733-62.787,3.44-88.34,18.129c-5.448,3.131-9.502,8.153-11.275,14.181    c-8.349,28.387-34.731,118.084-45.687,155.33c-1.709,5.808,4.662,10.61,9.816,7.436l81.289-50.058l-45.23,292.37    c-0.917,5.631,5.31,9.662,10.023,6.444c64.969-44.351,207.978-156.366,216.493-288.15    C509.206,106.374,454.645,37.543,377.081,28.606z"/>
		<path style="fill:#DB4655;" d="M46.759,201.467C31.903,119.599,79.963,43.773,158.306,27.838    c-3.527-0.163-7.076-0.251-10.668-0.153C57.811,30.13-3.05,108.992,9.017,198.039C27.002,330.765,176.73,441.258,233.805,478.938    c3.923,2.59,9.189,0.278,9.944-4.361c1-6.141,2.428-14.913,4.146-25.467C177.613,401.814,66.718,311.45,46.759,201.467z"/>
		<path style="fill:#DB4655;" d="M337.319,165.944l-14.434,7.681l-45.23,292.369c-0.918,5.637,5.342,9.641,10.058,6.42    c1.864-1.273,13.313-9.12,13.313-9.12L349,174.339C350.089,167.782,343.187,162.822,337.319,165.944z"/>
	</g>
	<g>
		<path d="M286.688,229.917c-2.438-1.633-5.606-1.695-8.105-0.156l-93.375,57.46l64.324-218.704    c1.798-6.114-0.331-12.807-5.299-16.656c-28.034-21.716-61.535-32.686-96.876-31.724C104.84,21.295,66.021,40.056,38.05,72.966    C8.64,107.57-4.691,153.52,1.477,199.035c19.333,142.669,185.969,259.339,236.581,291.699c1.225,0.783,2.629,1.181,4.041,1.181    c1.039,0,2.082-0.216,3.06-0.653c2.305-1.03,3.937-3.15,4.342-5.642l5.081-31.208c0.666-4.088-2.109-7.942-6.197-8.607    c-4.088-0.666-7.942,2.108-8.607,6.197l-3.231,19.847c-28.184-18.676-73.849-51.731-116.982-95.206    c-60.621-61.1-95.349-121.533-103.221-179.624c-5.597-41.301,6.482-82.977,33.139-114.34    c25.177-29.622,60.082-46.509,98.285-47.548c31.838-0.87,62.02,9.019,87.282,28.587c0.089,0.069,0.168,0.317,0.095,0.565    l-69.024,234.685l-13.081,8.049c-3.528,2.171-4.627,6.791-2.457,10.318c1.417,2.302,3.876,3.57,6.395,3.57    c1.34,0,2.698-0.359,3.923-1.113l111.578-68.663l-27.283,167.594c-0.666,4.089,2.109,7.942,6.197,8.608    c4.086,0.665,7.942-2.109,8.607-6.198l29.918-183.783C290.388,234.456,289.127,231.55,286.688,229.917z"/>
		<path d="M477.426,75.827c-24.887-30.76-60.227-50.193-99.51-54.721c-32.568-3.754-64.712,2.844-92.958,19.08    c-7.197,4.137-12.436,10.751-14.752,18.626l-3.196,10.866c-1.168,3.974,1.105,8.143,5.079,9.312    c3.972,1.167,8.143-1.105,9.312-5.079l3.196-10.866c1.221-4.152,4.004-7.651,7.837-9.854    c25.442-14.625,54.409-20.566,83.765-17.183c35.357,4.075,67.166,21.567,89.566,49.254c22.268,27.522,33.25,62.514,30.923,98.527    c-3.796,58.743-35.622,120.171-94.595,182.577c-41.198,43.597-86.714,77.957-116.708,98.568l46.933-288.311l7.864-4.839    c3.528-2.171,4.627-6.79,2.457-10.318c-2.171-3.527-6.79-4.628-10.318-2.457l-92.735,57.068l33.032-112.304    c1.169-3.974-1.105-8.143-5.079-9.312c-3.974-1.168-8.143,1.105-9.312,5.079l-38.545,131.047    c-0.876,2.979,0.174,6.189,2.641,8.075c2.466,1.886,5.84,2.057,8.485,0.429l84.621-52.075l-47.626,292.568    c-0.478,2.934,0.822,5.872,3.313,7.493c1.243,0.809,2.666,1.212,4.089,1.212c1.429,0,2.857-0.407,4.104-1.222    c28.678-18.744,84.18-58.012,133.687-110.4c61.44-65.016,94.634-129.584,98.662-191.912    C514.227,144.972,502.07,106.287,477.426,75.827z"/>
	</g>
</g>















</svg>
